<svg id="Layer_1" data-name="Layer 1" xmlns="http://www.w3.org/2000/svg" viewBox="0 0 792 687.17"><defs><style>.cls-1{fill:#5da8a7;}.cls-2{fill:#7eb5b5;}.cls-3{fill:#2a271e;}.cls-4{fill:#02283a;}.cls-5{fill:#343333;}.cls-6{fill:#fcb333;}.cls-7{fill:#9dc4c4;}.cls-8{fill:#193852;}.cls-9{fill:#1d9996;}.cls-10{fill:#528a89;}.cls-11{fill:#647a7b;}.cls-12{fill:#363634;}</style></defs><title>Hack Days #2</title><path class="cls-1" d="M92.67,280.58s22-7.69,24.83-7.34,1.75-2.45,19.93,12.94,65.4,70.29,96.87,64-65,31.88-65,31.88l-30.43,5.19L90.22,284.43S89.87,283.38,92.67,280.58Z"/><path class="cls-2" d="M131.3,286.18c-10.31-8.73-14.44-11.6-16.59-12.52a10.58,10.58,0,0,1,2.78-.42c2.8,0.35,1.75-2.45,19.93,12.94C154.07,300.26,195,347.4,226,350.51,194.52,353.93,149.07,301.21,131.3,286.18Z"/><ellipse class="cls-3" cx="471.24" cy="405.44" rx="12.51" ry="12.51"/><circle class="cls-4" cx="477.59" cy="407.68" r="3.24"/><ellipse class="cls-5" cx="470.15" cy="405.01" rx="11.43" ry="11.43"/><circle class="cls-6" cx="469" cy="404.72" r="3.24"/><rect class="cls-3" x="464.12" y="380.62" width="8.01" height="18.16" transform="translate(936.25 779.39) rotate(-180)"/><path class="cls-1" d="M561.59,331.51c-2.77-1.94-36.42-1-72.07,24.5-8.19,5.86-10.47,17.23-3.68,24.65A15.16,15.16,0,0,0,495,385.8c18.24,2.31,70.6-14.81,73.86-19.89,0.41-.63,1.06-1.06.88-1.79L559.5,332.41C559.34,331.76,562.13,331.9,561.59,331.51Z"/><ellipse class="cls-7" cx="563.52" cy="348.85" rx="8.06" ry="18.01" transform="translate(-66.77 143.96) rotate(-13.75)"/><ellipse class="cls-3" cx="563.76" cy="349.01" rx="6.95" ry="16.17" transform="translate(-66.81 144.02) rotate(-13.75)"/><polygon class="cls-8" points="657.4 335.49 655.34 303.99 650.97 304.28 652.28 324.4 644.76 307.9 640.78 309.71 652.53 335.49 657.4 335.49"/><path class="cls-9" d="M101.76,400.54s56.3-34.27,138.84-54.91S627,210.64,690.34,228.47c14,3.15,12.24,10.49,30.43,14.34s19.93,17.84,4.55,30.43c-44.76,34.27-162.62,51.06-248,92.68-24.83,6.64-264.44,47.93-315.48,47.56C128.6,413.23,103,412,101.76,411,98.61,408.58,97.44,403.21,101.76,400.54Z"/><path class="cls-10" d="M217.52,390.39c9.58-3.15,468.62-134.29,491.36-139.19,12.5-2.69,20.76-1.47,25.68.17,3.11,6.09.09,14.23-9.24,21.86-44.76,34.27-162.62,51.06-248,92.68-24.83,6.64-122,26.65-168.38,34.88-26.43,4.69-93.85,13-144.63,12.69C172.14,405.42,204.23,394.77,217.52,390.39Z"/><path class="cls-6" d="M662.65,237.33C604.93,246.68,404.15,291.88,177.3,382l-1.46,4a1.93,1.93,0,0,0,2.41,2.5C396.1,313,514,279,659.39,246.68,659.39,246.68,661.78,240.08,662.65,237.33Z"/><path class="cls-11" d="M406.72,380.25c-14.74-.43-57.7,3.15-56.3-5.6s26-22.74,26-22.74S453.23,310.1,525.62,313,491,362.42,477.36,365.91,416.82,380.55,406.72,380.25Z"/><path class="cls-1" d="M60.53,389.45a1.13,1.13,0,0,1-.38-2.06l10.14-6.3a10.46,10.46,0,0,1,6.09-1.56l76.91,4.19,21.22,0-33.22,15.54Z"/><path class="cls-11" d="M196.88,285.13s9.55-.18,18,0c7,0.15,19.82.09,30.66,1.45s142.69,21.64,142.69,21.64c9.68,1.17,83.35.47,83.35,0.47l-64.35,53.39s-12.36,1.17-15.15,0-39.4-26.81-43.6-27.28c-0.66-.07-2.69-0.41-5.66-0.93-25,11-24,7.14-22.79,4,0.78-2.07,4.64-4.71,7.93-6.65C309.07,327.71,284.2,323,284.2,323c-4.83,2.06-10.72,4.48-12.47,5.11-5.83,2.09-7.69-.74-3.85-4a67.23,67.23,0,0,1,5.91-4.2l-17.41-5a1.27,1.27,0,0,1-.8-1.77l1.74-3.64a2.2,2.2,0,0,0-1.45-3.08l-44.3-11.15s-10.6,3.8-11.6,3.49c-4.08-1.28,3.21-6.63,1.11-7.33S189.54,286.18,196.88,285.13Z"/><path class="cls-4" d="M698.39,288.63h0a112,112,0,0,1-24,16.57c-3.31,1.69-5.75,2.89-5.75,2.89a29.77,29.77,0,0,1-12.46,2.42l-19-.43Z"/><ellipse class="cls-3" cx="465.29" cy="405.44" rx="13.45" ry="13.46"/><circle class="cls-4" cx="472.13" cy="407.85" r="3.48"/><ellipse class="cls-12" cx="464.12" cy="404.98" rx="12.29" ry="12.3"/><circle class="cls-6" cx="462.88" cy="404.67" r="3.48"/><ellipse class="cls-3" cx="657.68" cy="332.86" rx="9.9" ry="9.91"/><circle class="cls-4" cx="662.71" cy="334.63" r="2.56"/><circle class="cls-5" cx="656.82" cy="332.52" r="9.05"/><circle class="cls-6" cx="655.9" cy="332.3" r="2.56"/><ellipse class="cls-3" cx="652.97" cy="332.86" rx="10.65" ry="10.65"/><circle class="cls-4" cx="658.38" cy="334.77" r="2.76"/><circle class="cls-12" cx="652.04" cy="332.5" r="9.73"/><circle class="cls-6" cx="651.06" cy="332.25" r="2.76"/><ellipse class="cls-3" cx="412.5" cy="396.03" rx="12.51" ry="12.51"/><circle class="cls-4" cx="418.86" cy="398.27" r="3.24"/><ellipse class="cls-5" cx="411.42" cy="395.6" rx="11.43" ry="11.43"/><circle class="cls-6" cx="410.26" cy="395.32" r="3.24"/><rect class="cls-3" x="405.39" y="371.21" width="8.01" height="18.16" transform="translate(818.78 760.58) rotate(-180)"/><path class="cls-8" d="M672.5,235.71v7.89l-0.24.09c-3.48.74-6.68,1.51-9.55,2.24,0,0,0-.06,0-0.09,0.47-1.31,2.39-6.65,3.16-9C668.19,236.37,670.41,236,672.5,235.71Z"/><path class="cls-8" d="M683.94,234.51l4.81,6.58c-4.51.45-8.8,1.11-12.8,1.87l-1.21-7.55C678.15,235,681.23,234.69,683.94,234.51Z"/><path class="cls-8" d="M696.09,234.38c0.4,0.25.75,0.49,1,.65,1.72,1.35,5.34,4.13,7.18,5.53a111.42,111.42,0,0,0-12,.23l-5.92-6.41A94.64,94.64,0,0,1,696.09,234.38Z"/><ellipse class="cls-3" cx="406.56" cy="396.03" rx="13.45" ry="13.46"/><circle class="cls-4" cx="413.39" cy="398.44" r="3.48"/><ellipse class="cls-12" cx="405.39" cy="395.57" rx="12.29" ry="12.3"/><circle class="cls-6" cx="404.15" cy="395.27" r="3.48"/><path class="cls-9" d="M496.59,358.47l-6.19,8.2a64.55,64.55,0,0,1-14.21,13.78l-1.85,1.31a15.52,15.52,0,0,1-6.22,2.61L442,389.08a4.28,4.28,0,0,1-4.72-2.61l-4.54-11.26Z"/><path class="cls-10" d="M413.79,371.73H404.9a10.21,10.21,0,0,1-8-3.85L392,361.76l31.73-11.7-3,15.84A7.14,7.14,0,0,1,413.79,371.73Z"/><path class="cls-1" d="M499.3,306c-2.7-2-36.37-2.2-72.84,22.11-8.38,5.58-11,16.87-4.49,24.52a15.16,15.16,0,0,0,9,5.43c18.16,2.91,71.05-12.47,74.48-17.45,0.43-.62,1.1-1,0.94-1.76l-9.2-32C497,306.21,499.83,306.44,499.3,306Z"/><ellipse class="cls-7" cx="500.66" cy="323.43" rx="8.06" ry="18.01" transform="translate(-55.8 109.83) rotate(-11.86)"/><ellipse class="cls-3" cx="500.89" cy="323.6" rx="6.95" ry="16.17" transform="translate(-55.82 109.88) rotate(-11.86)"/><path class="cls-1" d="M388.18,311.79S256.34,291.51,245.5,290.15s-23.63-1.3-30.66-1.45c-8.4-.18-18,0-18,0-0.31,0-.58.1-0.83,0.15-2.15-1.48-3.26-3.15.83-3.73,0,0,9.55-.18,18,0,7,0.15,19.82.09,30.66,1.45s142.69,21.64,142.69,21.64c9.68,1.17,83.35.47,83.35,0.47l-4.36,3.62C451.22,312.42,396.43,312.78,388.18,311.79Z"/><path class="cls-2" d="M153.28,385.38l-76.91-4.19a10.46,10.46,0,0,0-6.09,1.56L60.14,389a1.11,1.11,0,0,0-.15.13,1.12,1.12,0,0,1,.15-1.79l10.14-6.3a10.46,10.46,0,0,1,6.09-1.56l76.91,4.19,21.22,0-3.56,1.67Z"/><ellipse class="cls-2" cx="342.92" cy="330.09" rx="26.03" ry="5.63" transform="translate(-94 141.26) rotate(-20.53)"/><ellipse class="cls-2" cx="284.66" cy="317.99" rx="21.33" ry="4.61" transform="translate(-115.52 169.64) rotate(-27.83)"/></svg>