<svg id="Layer_1" data-name="Layer 1" xmlns="http://www.w3.org/2000/svg" viewBox="0 0 792 704.54"><defs><style>.cls-1{fill:#2e4851;}.cls-2{fill:#86b9b9;}.cls-3{fill:#23221c;}.cls-4{fill:#d3d3d3;}.cls-5{fill:#a49f80;}.cls-6{fill:#1d9996;}</style></defs><title>Hack Days #2</title><path class="cls-1" d="M583.29,315.41a102.4,102.4,0,1,0,102.4,102.4A102.52,102.52,0,0,0,583.29,315.41Zm25.13,91.9,56.43-26.43q1.1,2.42,2.06,4.92ZM667.72,388a88.85,88.85,0,0,1,4.69,21l-80.6,6.92ZM588,410.41L621.88,337A89.79,89.79,0,0,1,640,348.57Zm53.83-60.32q2,1.74,3.93,3.6l-44,44Zm-48.17,42.49L614.83,334c1.67,0.63,3.31,1.32,4.92,2Zm-9.21,18.58V328.29a89.11,89.11,0,0,1,28.22,4.93Zm-2.34-20.59-5.32-62c1.76-.13,3.54-0.21,5.32-0.23v62.28Zm-0.74,18.68-27.9-75.86a88.85,88.85,0,0,1,21-4.69Zm-8.59-16.6-26.41-56.38q2.42-1.1,4.91-2.06Zm6.62,19.64-58.55-58.55a90,90,0,0,1,23.4-16.49Zm-16.22-12.92-47.58-40.06q1.74-2,3.6-3.92Zm12.69,13.74-73.35-33.9A89.79,89.79,0,0,1,514,361.09ZM558,407.44l-58.51-21.18c0.63-1.67,1.31-3.3,2-4.92Zm18.59,9.21H493.76a89.1,89.1,0,0,1,4.94-28.2ZM556,419l-62,5.32c-0.13-1.76-.21-3.53-0.23-5.32H556Zm18.7,0.74-75.84,27.89a88.85,88.85,0,0,1-4.68-21Zm-16.61,8.6-56.36,26.4q-1.1-2.42-2.06-4.91Zm20.46-3.1-33.91,73.37A89.8,89.8,0,0,1,526.5,487Zm-53.8,60.28q-2-1.74-3.92-3.6l44-44Zm48.13-42.43L551.67,501.6c-1.67-.63-3.3-1.32-4.92-2Zm9.22-18.6v82.88a89.1,89.1,0,0,1-28.21-5Zm2.34,20.61,5.32,62c-1.76.13-3.54,0.21-5.32,0.23V445.08Zm0.74-18.7,27.91,75.89a88.85,88.85,0,0,1-21,4.67Zm8.6,16.61,26.42,56.41q-2.42,1.1-4.92,2.06Zm-6.62-19.64,58.6,58.6a90,90,0,0,1-23.43,16.48Zm16.22,12.92L651,476.37q-1.75,2-3.6,3.93Zm-12.69-13.74,73.42,33.94A89.8,89.8,0,0,1,652.5,474.6Zm17.84,5.67,58.59,21.21c-0.63,1.67-1.32,3.31-2,4.92ZM589.9,419h82.92a89.1,89.1,0,0,1-5,28.23Zm20.59-2.34,62.1-5.33c0.13,1.76.21,3.54,0.23,5.33H610.49Zm53.38-37.89-75.1,35.18,58.6-58.6A90,90,0,0,1,663.87,378.77ZM502.69,456.84l75-35.14-58.55,58.55A90,90,0,0,1,502.69,456.84Z"/><path class="cls-1" d="M216.32,314.93a102.4,102.4,0,1,0,102.4,102.4A102.52,102.52,0,0,0,216.32,314.93Zm25.13,91.9,56.43-26.43q1.1,2.42,2.06,4.92Zm59.3-19.32a88.85,88.85,0,0,1,4.69,21l-80.6,6.92ZM221,409.93l33.93-73.4A89.79,89.79,0,0,1,273,348.09Zm53.84-60.32q2,1.74,3.93,3.6l-44,44ZM226.65,392.1l21.21-58.57c1.67,0.63,3.31,1.32,4.92,2Zm-9.21,18.58V327.81a89.1,89.1,0,0,1,28.22,4.93Zm-2.34-20.6-5.32-62c1.76-.13,3.54-0.21,5.32-0.23v62.27Zm-0.74,18.69-27.9-75.86a88.85,88.85,0,0,1,21-4.69Zm-8.6-16.61-26.4-56.37q2.42-1.1,4.91-2.06Zm6.63,19.65-58.55-58.55a90,90,0,0,1,23.4-16.49Zm-16.22-12.92-47.58-40.06q1.74-2,3.6-3.92Zm12.69,13.74-73.35-33.9a89.79,89.79,0,0,1,11.56-18.12ZM191,407l-58.52-21.19c0.63-1.67,1.31-3.3,2-4.92Zm18.59,9.21H126.79a89.1,89.1,0,0,1,4.94-28.2ZM189,418.51l-62,5.32c-0.13-1.76-.21-3.53-0.23-5.32H189Zm18.69,0.74-75.83,27.89a88.84,88.84,0,0,1-4.68-21Zm-16.61,8.6-56.35,26.4q-1.1-2.42-2.06-4.91Zm20.47-3.09-33.91,73.37a89.8,89.8,0,0,1-18.12-11.57ZM157.76,485q-2-1.74-3.92-3.6l44-44Zm48.13-42.44L184.7,501.12c-1.67-.63-3.3-1.32-4.92-2ZM215.11,424v82.88a89.1,89.1,0,0,1-28.21-5Zm2.34,20.6,5.32,62c-1.76.13-3.54,0.21-5.32,0.23V444.6Zm0.74-18.69,27.91,75.89a88.85,88.85,0,0,1-21,4.67Zm8.6,16.61,26.42,56.41q-2.42,1.1-4.92,2.06Zm-6.62-19.64,58.6,58.6a90,90,0,0,1-23.43,16.48Zm16.22,12.92L284,475.89q-1.75,2-3.6,3.93ZM223.68,422L297.1,456a89.8,89.8,0,0,1-11.58,18.13Zm17.83,5.67,58.59,21.21c-0.63,1.67-1.32,3.31-2,4.93Zm-18.59-9.21h82.92a89.1,89.1,0,0,1-5,28.23Zm20.6-2.34,62.09-5.33c0.13,1.76.21,3.54,0.23,5.33H243.53Zm53.37-37.89-75.1,35.17,58.6-58.6A90,90,0,0,1,296.9,378.28ZM135.72,456.36l75-35.14-58.55,58.55A90,90,0,0,1,135.72,456.36Z"/><polygon class="cls-2" points="214.9 418.96 124.26 275.45 126.24 274.2 214.63 414.16 281.43 276.4 283.53 277.42 214.9 418.96"/><rect class="cls-2" x="342.18" y="176.98" width="7.01" height="261.94" transform="translate(-61.3 87.28) rotate(-13.23)"/><path class="cls-3" d="M216.32,539.35a122,122,0,1,1,122-122A122.15,122.15,0,0,1,216.32,539.35Zm0-230a108,108,0,1,0,108,108A108.12,108.12,0,0,0,216.32,309.34Z"/><path class="cls-4" d="M216.32,321.36a96,96,0,1,1-96,96,96,96,0,0,1,96-96m0-11.68A107.66,107.66,0,1,0,324,417.34,107.78,107.78,0,0,0,216.32,309.68h0Z"/><path class="cls-3" d="M583.29,539.83a122,122,0,1,1,122-122A122.15,122.15,0,0,1,583.29,539.83Zm0-230a108,108,0,1,0,108,108A108.12,108.12,0,0,0,583.29,309.82Z"/><path class="cls-4" d="M583.29,321.84a96,96,0,1,1-96,96,96,96,0,0,1,96-96m0-11.68A107.66,107.66,0,1,0,690.95,417.82,107.78,107.78,0,0,0,583.29,310.16h0Z"/><path class="cls-5" d="M298.44,163.2c13.66,6.47,41.92,7.65,53.6,7.65s32,4,34.36,11.8c1,3.34-.71,5.5-3,6.88a11.53,11.53,0,0,1-11.08.31c-12-6-53.86-3-66.09-1.74-39.24,4.17-45.15-18.42-45.92-28C260.3,153.85,268.86,149.19,298.44,163.2Z"/><path class="cls-2" d="M592.88,178.34c-1-5.08-4.18-9-9.37-11.75-18.29-9.58-59.33-.59-66.85,2.66-3.4,1.47-2.81,5.31-.4,15.11,0.42,1.7.85,3.38,1.26,4.89l-0.06,0L570,382.13l6.76-1.84L526,193.86a3.49,3.49,0,0,0-.13-0.78A183.93,183.93,0,0,1,521.41,175c10.68-3.5,44.62-9.6,58.85-2.15,3.28,1.71,5.16,4,5.75,6.92a12.71,12.71,0,0,1-1.71,10c-2.37,3.56-8.09,8.38-21.9,11.13l-0.54.11a3.5,3.5,0,0,0,.71,6.93,3.55,3.55,0,0,0,.72-0.08l0.47-.1c13-2.58,21.84-7.33,26.36-14.11A19.64,19.64,0,0,0,592.88,178.34Z"/><path class="cls-1" d="M592.88,178.34c-2.74-13.58-19.92-16.28-34.33-16.06l0.86,7c21.21-.18,25.78,6.42,26.6,10.45a12.7,12.7,0,0,1-1.71,10c-2.37,3.56-8.09,8.38-21.89,11.13l-0.54.11a3.5,3.5,0,0,0,1.14,6.9l0.29,0,0.47-.1c13-2.58,21.84-7.33,26.36-14.11A19.64,19.64,0,0,0,592.88,178.34Z"/><path class="cls-2" d="M351.49,415.77c0-74.69-60.77-135.46-135.46-135.46A135.51,135.51,0,0,0,89.44,367.46h0a18.82,18.82,0,0,0,23.21-8.54,117.9,117.9,0,0,1,35.76-39.8c0.75-.53,1.51-1,2.27-1.53l64.61,102.21,1.41-.89,0.12,1.1,116.84-13v0.09a9.26,9.26,0,0,0,9.2,8.65h8.63ZM216.7,417.66L152.63,316.3a118,118,0,0,1,180.83,88.4Z"/><path class="cls-6" d="M579.24,415.86L586,414l-58.34-214-6.76,1.84,5,18.23c-13.25.79-72.53,5.42-137.72,28a417.25,417.25,0,0,0-48.24,20L327,213l-6.82,1.6,13.34,56.74A305.43,305.43,0,0,0,280.21,306c-36.39,29.83-60.87,66.33-72.75,108.48l14.61,4.12c11-39,33.75-72.94,67.62-100.74a287.18,287.18,0,0,1,47.39-31.26l35,148.92,6.82-1.6-7.31-31.1L532.18,243.26ZM343.49,283.29a398.45,398.45,0,0,1,49.29-20.73c54.76-19,106.45-25,127-26.74l-152,151Z"/><path class="cls-2" d="M600.31,281.86a137.4,137.4,0,0,0-16.6-1.08l-2.15-13.54c-8.85,2.39-15,7.42-14.22,12.16a5.33,5.33,0,0,0,.92,2.2A135.58,135.58,0,0,0,447.9,415.73l8.43,0a9.43,9.43,0,0,0,9.45-8.71V407l117.33,13,0.21-1.89h1l-0.41-119.81h0.14A15.81,15.81,0,0,0,600,284.53Zm-88.58,40.69a117.14,117.14,0,0,1,69.86-24.24L582,417.52,466,404.65A117.09,117.09,0,0,1,511.73,322.55Z"/><circle class="cls-1" cx="583.29" cy="417.7" r="13.37"/><circle class="cls-1" cx="374.51" cy="430.59" r="7.73"/><rect class="cls-5" x="72.32" y="272.29" width="221.87" height="5.06"/><path class="cls-4" d="M375.43,464.75a11.54,11.54,0,0,1-2.35-.26L217,431.92a11.91,11.91,0,0,0-1.65-.2,14.54,14.54,0,0,1,1-29l158.15-6.27a34.18,34.18,0,0,1,1.31,68.34h-0.34Zm-158-35.12,156.11,32.58a9.4,9.4,0,0,0,2.13.2,31.85,31.85,0,0,0-1.18-63.68L216.36,405a12.2,12.2,0,0,0-.88,24.38,14.13,14.13,0,0,1,2,.24h0Z"/><path class="cls-1" d="M374.51,464.77a34.18,34.18,0,1,1,34.18-34.18A34.22,34.22,0,0,1,374.51,464.77Zm0-66a31.85,31.85,0,1,0,31.85,31.85A31.89,31.89,0,0,0,374.51,398.74Z"/><circle class="cls-1" cx="216.32" cy="417.22" r="13.37"/><polygon class="cls-4" points="411.14 388.52 407.11 385.47 374.14 429.11 374.14 429.11 339.75 474.65 343.78 477.69 378.18 432.16 378.18 432.16 411.14 388.52"/><rect class="cls-2" x="396.29" y="383.95" width="29.38" height="8.17"/><circle class="cls-1" cx="374.51" cy="430.59" r="7.73"/><rect class="cls-2" x="326.81" y="472.44" width="29.38" height="8.17"/></svg>