<svg id="Layer_1" data-name="Layer 1" xmlns="http://www.w3.org/2000/svg" viewBox="0 0 792 704.54"><defs><style>.cls-1{fill:#23221c;}.cls-2{fill:#f8eed3;}.cls-3{fill:#929393;}.cls-4{fill:#b6b8b7;}.cls-5{fill:#1d9996;}.cls-6{fill:#193852;}.cls-7{fill:#e8582d;}.cls-8{fill:#5da8a7;}.cls-9{fill:#86b9b9;}.cls-10{fill:#fff;}.cls-11{fill:#415068;}</style></defs><title>Hack Days #2</title><path class="cls-1" d="M48.43,464.67s45.58,2.78,56.19-17,87.39-18.5,107.37,0,20.71,26.51,39.07,26.51,311.2-.4,311.2-0.4,38.62-1.55,51.73-40.47,79.28,28.52,116.11,18.52l-9.58-35.72-49.72-38.58H570.29l-159.18,23L222,363.8H132.92Z"/><path class="cls-1" d="M726.76,442.33l23.1-1.25,6.49-13.92s0-9.05-35.83-11C714.48,415.78,726.76,442.33,726.76,442.33Z"/><path class="cls-1" d="M64.67,409.84s-27.39,2.76-35.54,7.23,12.13,16,12.13,16h28.4Z"/><circle class="cls-1" cx="162.36" cy="454.82" r="64.15"/><circle class="cls-2" cx="162.36" cy="454.82" r="54.27"/><circle class="cls-3" cx="162.36" cy="454.82" r="38.37"/><circle class="cls-4" cx="162.36" cy="454.82" r="29.44"/><circle class="cls-1" cx="646.43" cy="449.12" r="64.15"/><circle class="cls-2" cx="646.43" cy="449.12" r="54.27"/><circle class="cls-3" cx="646.43" cy="449.12" r="38.37"/><circle class="cls-4" cx="646.43" cy="449.12" r="29.44"/><path class="cls-5" d="M471.6,257.83l33.54,51.3a5.06,5.06,0,0,0,4.15,2.3c15.16,0.28,91.2,2.51,131.54,19.31,36.14,15.06,47.26,26.49,50.22,30.38a5.09,5.09,0,0,0,2.81,1.87c3.84,1,12.7,3.66,17.5,8.94,6.24,6.87,29.34,73,18.73,79.9-7.48,7.68-6.52-51-58.77-67.61a4.27,4.27,0,0,1-.5-0.19c-37.37-17.29-73.73.58-88.06,35.4-13,31.55-9.12,38.65-13.8,45.72a5.1,5.1,0,0,1-4.23,2.29l-315.26,1.1a5,5,0,0,1-4.33-2.39c-15-24.76-9.81-74.55-66.59-84.21-71.73-12.21-78.94,55.53-96.42,69.89-16.05,13.19-26,8.43-38.49,1.23C26,442.92,51.56,435.6,54.06,428.74c2.33-6.41,3-25.56,19.89-57.71A5.08,5.08,0,0,0,70,363.64c-5.47-.66-7.28-2.29-1-5.44,8.74-4.37,13.11-1.54,18.73-5.45s55.56-60.72,108-88.18c51.72-27.09,160.49-44.36,268.8-12A12.79,12.79,0,0,1,471.6,257.83Z"/><path class="cls-6" d="M461.05,270.17c-16-9.24-81.12-10.27-105.49-10.61-15-.21-15,13.74-15,21.85s-0.21,24.34-.42,31.84,1,16.85,19.14,15,114.23-.14,125.47.24,10.86-12.64,0-29C474.57,284.19,472.91,277,461.05,270.17Z"/><path class="cls-6" d="M305.61,259.56c-11.81,1.69-99.25,8.74-114.86,46.82-11.24,28.09,20,27.47,43.7,25.59s70.54-3.25,74.91-3.5,14.36,0.37,13.11-22.1S327.46,256.44,305.61,259.56Z"/><path class="cls-6" d="M195.76,264.57s-2.5,8.73-13.73,16.84-38.08,33.08-41.82,36.83-10,3.12-11.24-5C129,313.24,167.67,274.54,195.76,264.57Z"/><path class="cls-7" d="M74,373.17C69.45,375.25,62.11,393,68.7,414S99,390,99,390l10.61-16.85S80.9,370,74,373.17Z"/><path class="cls-8" d="M262.55,460.14s-6.88-105.52-96.76-108c-34.81-1-56.6,7.71-70.69,19.35-24.57,20.31-25.73,49.65-31.68,52.61-11.79,5.88-48.07,21.5-28.71,35.45,11.49,8.28,38.08,10.53,55.69-18,15-24.31,29.42-54.58,72-54.58,38.39,0,64.61,29.34,69.6,60.55s12.57,25.91,30.64,26.11C282.47,473.78,262.55,460.14,262.55,460.14Z"/><rect class="cls-2" x="711.37" y="371.93" width="14.96" height="37.47" rx="7.48" ry="7.48" transform="translate(-57.47 132.42) rotate(-10.12)"/><path class="cls-8" d="M717,381.27c-2.89-6-4.73-10.62-10.8-13.4-15.59-7.15-54.57-20.25-96-12-55.56,11.07-86.14,76.81-86.14,102.3-12.28,17.76-8.74,15.62,28.51,16,10,0.11,21,1.76,24.13-25.08s21.68-63,60.76-67.21c31.21-3.33,64.92,12.94,83.11,62.5,8.11,13.12,14.27,10.74,11.89-7.17C731,425.69,725,397.79,717,381.27Z"/><rect class="cls-4" x="336.21" y="345.78" width="38.7" height="6.33" rx="3.16" ry="3.16"/><path class="cls-9" d="M517.5,459.31h-0.62V336.8c-1.64-2.62-46.32-71.74-53.51-74.14-1-.34-30.41-14.44-132.81-11.19-58.45,1.86-97.06,10.31-129.07,28.28-30.65,17.2-55.21,42.78-89.8,84l-0.48-.4c66.08-78.67,102.11-108.75,219.33-112.47,102.57-3.25,132.07,10.9,133,11.22,7.51,2.5,52.15,71.69,53.89,74.47l0,0.08V459.31Z"/><rect class="cls-9" x="332.1" y="251.16" width="0.62" height="208.25"/><path class="cls-9" d="M658.73,354.42c-21.39-11.68-54.32-16.21-78.17-18-26.2-1.92-47.84-1-48.91-.64a1.19,1.19,0,0,1-1-.17c-2.86-1.58-10.07-12.19-10.65-15.13-0.64-3.21,3-8.5,3.17-8.73l0.51,0.36c0,0.05-3.66,5.29-3.07,8.25,0.55,2.75,7.63,13.21,10.34,14.71a0.71,0.71,0,0,0,.48.14c2.31-.89,86.76-3.66,127.6,18.64Z"/><path class="cls-3" d="M58.35,410.74s-42.45,4-41.2,12.48-0.78,15.53,0,17.1c1.44,3,1.69,6.62,35.82,7.45,4.58,0,5.16-14.78,5.41-18.52,0.36-5.32-27.39-4.29-27-9.7S58.35,410.74,58.35,410.74Z"/><path class="cls-4" d="M728.5,416.56s23.85,2.37,27.91,6.74,2.51,18.46,0,21.54c-2.91,3.56-22.7,2.94-24.34,2.5-3.57-1-4.94-20.48-.31-20.91,2.81-.26,18.84-1.16,16.54-4.06S728.5,416.56,728.5,416.56Z"/><path class="cls-1" d="M261.27,458.79H524a12.81,12.81,0,0,1,12.81,12.81v0a2.59,2.59,0,0,1-2.59,2.59H251.05a2.59,2.59,0,0,1-2.59-2.59v0a12.81,12.81,0,0,1,12.81-12.81Z"/><rect class="cls-10" x="320.49" y="466.48" width="204.41" height="3.57" rx="1.78" ry="1.78"/><rect class="cls-11" x="410.24" y="267.19" width="10.67" height="39.04" rx="5.33" ry="5.33" transform="matrix(0.87, 0.5, -0.5, 0.87, 199.03, -169.38)"/><rect class="cls-11" x="395.23" y="305.39" width="10.67" height="14.64" rx="5.33" ry="5.33" transform="translate(210.02 -158.39) rotate(30)"/><rect class="cls-11" x="413.08" y="292.37" width="7.14" height="30.17" rx="3.57" ry="3.57" transform="translate(209.55 -167.13) rotate(30)"/><rect class="cls-11" x="222.94" y="296.7" width="7.14" height="30.17" rx="3.57" ry="3.57" transform="translate(186.24 -71.49) rotate(30)"/><rect class="cls-11" x="245.02" y="268.98" width="7.14" height="51.57" rx="3.57" ry="3.57" transform="matrix(0.87, 0.5, -0.5, 0.87, 180.68, -84.8)"/><rect class="cls-11" x="252.34" y="282.26" width="7.14" height="42.84" rx="3.57" ry="3.57" transform="translate(186.12 -87.27) rotate(30)"/><rect class="cls-4" x="480.5" y="306.36" width="10.67" height="33.07" rx="5.34" ry="5.34"/><rect class="cls-4" x="494.56" y="319.62" width="3.84" height="22.95" rx="1.92" ry="1.92" transform="translate(-68.79 522.36) rotate(-52.39)"/></svg>