<svg id="Layer_1" data-name="Layer 1" xmlns="http://www.w3.org/2000/svg" viewBox="0 0 792 687.17"><defs><style>.cls-1{fill:#1d9996;}.cls-2{fill:#fcb333;}.cls-3{fill:#23221c;}.cls-4{fill:#929393;}.cls-5{fill:#b6b8b7;}</style></defs><title>Hack Days #2</title><path class="cls-1" d="M277.5,517.73l-11.14.17a53.53,53.53,0,0,0-97.83-29.24A12.3,12.3,0,0,1,153.47,493h0A64.68,64.68,0,0,1,277.5,517.73Z"/><polygon class="cls-1" points="479.61 500.54 266.76 503.76 266.98 517.89 488.61 514.53 548.46 410.85 547.63 356.19 479.61 500.54"/><path class="cls-2" d="M211.83,493.82a26.41,26.41,0,1,1-26,26.81,26.44,26.44,0,0,1,26-26.81m-0.17-11a37.42,37.42,0,1,0,38,36.85,37.42,37.42,0,0,0-38-36.85h0Z"/><path class="cls-2" d="M556.37,495.44a26.41,26.41,0,1,1-26,26.81,26.44,26.44,0,0,1,26-26.81m-0.17-11a37.42,37.42,0,1,0,38,36.85,37.42,37.42,0,0,0-38-36.85h0Z"/><path class="cls-3" d="M557.49,569.24a47.4,47.4,0,1,1,46.67-48.11A47.45,47.45,0,0,1,557.49,569.24Zm-1.28-84.63A37.24,37.24,0,1,0,594,521.29,37.28,37.28,0,0,0,556.21,484.62Z"/><path class="cls-4" d="M557.38,562.23a40.38,40.38,0,1,1,39.76-41A40.43,40.43,0,0,1,557.38,562.23Zm-1.13-74.83a34.45,34.45,0,1,0,35,33.93A34.49,34.49,0,0,0,556.25,487.4Z"/><path class="cls-3" d="M212.94,567.62a47.4,47.4,0,1,1,46.67-48.11A47.45,47.45,0,0,1,212.94,567.62ZM211.66,483a37.24,37.24,0,1,0,37.8,36.67A37.28,37.28,0,0,0,211.66,483Z"/><path class="cls-4" d="M212.84,560.6a40.38,40.38,0,1,1,39.76-41A40.43,40.43,0,0,1,212.84,560.6Zm-1.13-74.83a34.45,34.45,0,1,0,35,33.93A34.49,34.49,0,0,0,211.7,485.78Z"/><path class="cls-5" d="M547.3,140.21h12.42a0,0,0,0,1,0,0V523.27a5.38,5.38,0,0,1-5.38,5.38h-1.65a5.38,5.38,0,0,1-5.38-5.38V140.21A0,0,0,0,1,547.3,140.21Z" transform="translate(-5 8.42) rotate(-0.87)"/><rect class="cls-1" x="543.02" y="174.96" width="20.17" height="265.58" rx="3.8" ry="3.8" transform="translate(-4.6 8.41) rotate(-0.87)"/><rect class="cls-2" x="536.97" y="172.67" width="28.42" height="15.86" rx="6.88" ry="6.88" transform="translate(-2.67 8.37) rotate(-0.87)"/><rect class="cls-2" x="539.63" y="348.17" width="28.42" height="15.86" rx="6.88" ry="6.88" transform="translate(-5.33 8.43) rotate(-0.87)"/><polygon class="cls-5" points="488.88 153.19 487.86 142.38 605.59 127.36 606.61 138.18 488.88 153.19"/><path class="cls-3" d="M605.55,144.1l0-.23,27.41-3.5c3.45-.44,5.94-4.13,5.55-8.25l-0.65-6.88c-0.39-4.12-3.5-7.1-7-6.66l-27.41,3.5,0-.23c-0.23-2.41-2-4.15-4.07-3.9h0c-2,.26-3.48,2.42-3.25,4.83l0.72,7.69,0.65,6.88,0.72,7.69c0.23,2.41,2,4.15,4.07,3.9h0C604.32,148.67,605.78,146.51,605.55,144.1Z"/><path class="cls-3" d="M491.12,136.17l0,0.23-27.41,3.5c-3.45.44-5.94,4.13-5.55,8.25l0.65,6.88c0.39,4.12,3.5,7.1,7,6.66l27.41-3.5,0,0.23c0.23,2.41,2,4.15,4.07,3.9h0c2-.26,3.48-2.42,3.25-4.83l-0.72-7.69-0.65-6.88-0.72-7.69c-0.23-2.41-2-4.15-4.07-3.9h0C492.34,131.6,490.89,133.76,491.12,136.17Z"/><polygon class="cls-3" points="488.47 505.7 266.84 509.06 273.58 496.59 482.96 493.42 488.47 505.7"/><circle class="cls-3" cx="212.23" cy="520.23" r="8.36" transform="translate(-7.86 3.27) rotate(-0.87)"/><circle class="cls-3" cx="556.77" cy="521.85" r="8.36" transform="translate(-7.84 8.49) rotate(-0.87)"/></svg>