<svg id="Layer_1" data-name="Layer 1" xmlns="http://www.w3.org/2000/svg" viewBox="0 0 792 687.17"><defs><style>.cls-1{fill:#1d9996;}.cls-2{fill:#fcb333;}.cls-3{fill:#23221c;}.cls-4{fill:#929393;}.cls-5{fill:#b6b8b7;}</style></defs><title>Hack Days #2</title><path class="cls-1" d="M308.88,524.82H297.74a53.53,53.53,0,0,0-97.37-30.72,12.3,12.3,0,0,1-15.13,4.14h0A64.68,64.68,0,0,1,308.88,524.82Z"/><polygon class="cls-1" points="511.22 510.69 298.35 510.69 298.35 524.82 520.01 524.82 581.42 422.05 581.42 367.39 511.22 510.69"/><path class="cls-2" d="M243.57,499.91a26.41,26.41,0,1,1-26.41,26.41,26.44,26.44,0,0,1,26.41-26.41m0-11A37.42,37.42,0,1,0,281,526.33a37.42,37.42,0,0,0-37.42-37.42h0Z"/><path class="cls-2" d="M588.05,506.76a26.41,26.41,0,1,1-26.41,26.41,26.44,26.44,0,0,1,26.41-26.41m0-11a37.42,37.42,0,1,0,37.42,37.42,37.42,37.42,0,0,0-37.42-37.42h0Z"/><path class="cls-3" d="M588.05,580.57a47.4,47.4,0,1,1,47.4-47.4A47.45,47.45,0,0,1,588.05,580.57Zm0-84.64a37.24,37.24,0,1,0,37.24,37.24A37.28,37.28,0,0,0,588.05,495.93Z"/><path class="cls-4" d="M588.05,573.55a40.38,40.38,0,1,1,40.38-40.38A40.43,40.43,0,0,1,588.05,573.55Zm0-74.84a34.45,34.45,0,1,0,34.45,34.45A34.49,34.49,0,0,0,588.05,498.71Z"/><path class="cls-3" d="M243.57,573.72a47.4,47.4,0,1,1,47.4-47.4A47.45,47.45,0,0,1,243.57,573.72Zm0-84.64a37.24,37.24,0,1,0,37.24,37.24A37.28,37.28,0,0,0,243.57,489.09Z"/><path class="cls-4" d="M243.57,566.71A40.38,40.38,0,1,1,284,526.33,40.43,40.43,0,0,1,243.57,566.71Zm0-74.84A34.45,34.45,0,1,0,278,526.33,34.49,34.49,0,0,0,243.57,491.87Z"/><path class="cls-5" d="M581.42,151.49h12.42a0,0,0,0,1,0,0V534.56a5.38,5.38,0,0,1-5.38,5.38h-1.65a5.38,5.38,0,0,1-5.38-5.38V151.49A0,0,0,0,1,581.42,151.49Z"/><rect class="cls-1" x="577.55" y="186.25" width="20.17" height="265.58" rx="3.8" ry="3.8"/><rect class="cls-2" x="573.42" y="183.95" width="28.42" height="15.86" rx="6.88" ry="6.88"/><rect class="cls-2" x="573.42" y="359.46" width="28.42" height="15.86" rx="6.88" ry="6.88"/><polygon class="cls-5" points="525.76 163.52 524.9 152.7 642.84 139.47 643.7 150.29 525.76 163.52"/><path class="cls-3" d="M642.55,156.2l0-.23L670,152.89c3.46-.39,6-4,5.67-8.17l-0.54-6.89c-0.33-4.12-3.39-7.15-6.85-6.76l-27.46,3.08,0-.23c-0.19-2.41-2-4.19-4-4h0c-2,.23-3.51,2.37-3.32,4.78l0.61,7.7,0.54,6.89,0.61,7.7c0.19,2.41,2,4.19,4,4h0C641.25,160.76,642.74,158.61,642.55,156.2Z"/><path class="cls-3" d="M528.25,146.54l0,0.23-27.46,3.08c-3.46.39-6,4-5.67,8.17l0.54,6.89c0.33,4.12,3.39,7.15,6.85,6.76L530,168.59l0,0.23c0.19,2.41,2,4.19,4,4h0c2-.23,3.51-2.37,3.32-4.78l-0.61-7.7-0.54-6.89-0.61-7.7c-0.19-2.41-2-4.19-4-4h0C529.55,142,528.06,144.13,528.25,146.54Z"/><polygon class="cls-3" points="520.01 515.98 298.35 515.98 305.27 503.62 514.68 503.62 520.01 515.98"/><circle class="cls-3" cx="243.57" cy="526.33" r="8.36"/><circle class="cls-3" cx="588.05" cy="533.17" r="8.36"/></svg>