<svg id="Layer_1" data-name="Layer 1" xmlns="http://www.w3.org/2000/svg" viewBox="0 0 792 704.54"><defs><style>.cls-1{fill:#fcb333;}.cls-2{fill:#e8582d;}.cls-3{fill:#528a89;}.cls-4{fill:#1d9996;}.cls-5{fill:#86b9b9;}.cls-6{fill:#193852;}.cls-7{fill:#a49f80;}.cls-8{fill:#e22c32;}.cls-9{fill:#415068;}</style></defs><title>Hack Days #2</title><path class="cls-1" d="M232,418.23l-0.24.42C202,471.93,189.54,520,190,554.5c33.69,0.94,82.62-13.17,135.7-43.75h0Z"/><path class="cls-2" d="M244.75,411.71l-0.22.39c-27.64,49.62-39.29,94.34-38.83,126.52,31.38,0.87,77-12.27,126.38-40.74h0Z"/><path class="cls-3" d="M374.95,273.19c-24.15,5.15-83.24,14.58-124.54-5.28a5,5,0,0,0-6.15,1.47l-138,182.83c-3.54,4.69,2.54,10.57,7.11,6.88l74.95-60.55a5,5,0,0,1,1.79-.92l145.69-40.56a5,5,0,0,0,3-2.37l41.53-74.2A5,5,0,0,0,374.95,273.19Z"/><path class="cls-3" d="M479.25,362.75s-22.73,86.57,6.4,139l-184,142.77c-4.69,3.64-10.7-2.42-7-7.08l59.95-76.27L394,412Z"/><path class="cls-4" d="M666.14,72c-35.06-1-86,13.71-141.23,45.53-49,28.23-106.46,73.4-162.38,130.06-58.07,58.85-103.72,119.22-131,169.78l95.06,93.8c50.19-27.95,109.94-74.4,168-133.25,56.08-56.83,100.58-115.07,128.13-164.54C653.63,157.93,666.65,108,666.14,72Z"/><circle class="cls-5" cx="492.25" cy="248.22" r="63.05" transform="translate(-30.18 424.27) rotate(-45.38)"/><circle class="cls-6" cx="492.25" cy="248.22" r="51" transform="translate(-30.18 424.27) rotate(-45.38)"/><path class="cls-7" d="M622.5,213.82l0.25-.44C653.63,157.93,666.65,108,666.14,72c-35.06-1-86,13.71-141.23,45.53h0Z"/><path class="cls-8" d="M255.84,441.35l-0.12.21c-14.7,26.39-20.9,50.18-20.66,67.3,16.69,0.46,40.93-6.52,67.22-21.67h0Z"/><path class="cls-7" d="M269.4,357.32q-2,2.87-4,5.71L380.48,476.61q2.82-2,5.66-4.1Z"/><path class="cls-7" d="M253.05,381.3L362.37,489.17q2.9-1.94,5.82-3.94L256.91,375.43Q255,378.38,253.05,381.3Z"/><rect class="cls-7" x="335.53" y="304.7" width="195.65" height="5.98" rx="2.73" ry="2.73" transform="translate(341 -215.7) rotate(44.62)"/><rect class="cls-9" x="504.14" y="238.01" width="14.26" height="52.17" rx="6.5" ry="6.5" transform="translate(630.29 -298.91) rotate(74.62)"/><rect class="cls-9" x="465.45" y="264.96" width="14.26" height="19.57" rx="6.5" ry="6.5" transform="translate(612.12 -253.79) rotate(74.62)"/><rect class="cls-9" x="487.74" y="228.11" width="7.13" height="52.2" rx="3.25" ry="3.25" transform="translate(606.08 -286.93) rotate(74.62)"/><rect class="cls-9" x="488.04" y="264.68" width="9.54" height="40.32" rx="4.35" ry="4.35" transform="translate(636.73 -265.87) rotate(74.62)"/><rect class="cls-3" x="288.64" y="291.42" width="8.64" height="323.57" rx="3.94" ry="3.94" transform="translate(402.74 -75.16) rotate(44.62)"/></svg>