<svg id="Layer_1" data-name="Layer 1" xmlns="http://www.w3.org/2000/svg" viewBox="0 0 792 687.17"><defs><style>.cls-1{fill:#5da8a7;}.cls-2{fill:#1d9996;}.cls-3{fill:#193852;}.cls-4{fill:#e22c32;}.cls-5{fill:#23221c;}.cls-6{fill:#fcb333;}</style></defs><title>Hack Days #2</title><rect class="cls-1" x="294.6" y="224.19" width="202.8" height="339.12"/><path class="cls-2" d="M473,561.43L319,558.19V318c0-43.72,34.46-79.16,77-79.16h0c42.5,0,77,35.44,77,79.16V561.43Z"/><rect class="cls-3" x="280.77" y="554.65" width="230.45" height="27.23" rx="7.89" ry="7.89"/><rect class="cls-4" x="280.77" y="566.36" width="230.45" height="3.64" rx="1.82" ry="1.82"/><path class="cls-5" d="M396,245.57h0a70.5,70.5,0,0,1,70.5,70.5V556.28a0,0,0,0,1,0,0h-141a0,0,0,0,1,0,0V316.07a70.5,70.5,0,0,1,70.5-70.5Z"/><polygon class="cls-6" points="340.06 95.81 365.87 82.17 397.52 118.42 410.58 104.47 417.95 109.82 452.98 92.31 417.49 118.12 411.5 113.24 397.43 129.5 364.02 90 340.06 95.81"/><path class="cls-3" d="M498.59,220h-2.77a102.27,102.27,0,0,0-55.47-70.54l26-45h0.18a8.68,8.68,0,1,0-7.4-4.18L432.65,146.1a101.28,101.28,0,0,0-14.24-4.31,8.67,8.67,0,0,0-8.64-8.62H381a8.67,8.67,0,0,0-8.65,8.65v0.27a101.27,101.27,0,0,0-13,4L332.9,100.28a8.65,8.65,0,1,0-7.4,4.18h0.18l26,45A102.27,102.27,0,0,0,296.17,220h-4a3.24,3.24,0,0,0-3.24,3.24v6.63a3.24,3.24,0,0,0,3.24,3.24H498.59a3.24,3.24,0,0,0,3.24-3.24v-6.63A3.24,3.24,0,0,0,498.59,220Z"/><path class="cls-4" d="M296.17,220H495.83q-0.39-1.83-.85-3.64H297Q296.57,218.15,296.17,220Z"/><path class="cls-4" d="M299.45,208.2H492.55q-0.63-1.83-1.32-3.64H300.77Q300.07,206.36,299.45,208.2Z"/></svg>