<svg id="Layer_1" data-name="Layer 1" xmlns="http://www.w3.org/2000/svg" viewBox="0 0 792 687.17"><defs><style>.cls-1{fill:#231f20;}.cls-2{fill:#23221c;}.cls-3{fill:#5da8a7;}.cls-4{fill:#b04325;}.cls-5{fill:#e8582d;}.cls-6{fill:#1d9996;}.cls-7{fill:#404040;}.cls-8{fill:#929393;}</style></defs><title>Hack Days #2</title><polygon class="cls-1" points="455.21 396 650.23 396 650.23 380.92 479.15 380.2 455.21 396"/><rect class="cls-2" x="685.85" y="425.29" width="39.3" height="11.32" rx="0.88" ry="0.88" transform="translate(1411.01 861.89) rotate(-180)"/><rect class="cls-3" x="674.12" y="419.73" width="39.3" height="22.42" rx="4.89" ry="4.89" transform="translate(1387.55 861.88) rotate(-180)"/><rect class="cls-4" x="188.06" y="189.39" width="106.42" height="130.54" rx="4.02" ry="4.02" transform="translate(482.54 509.33) rotate(-180)"/><path class="cls-5" d="M184.46,184H298.09a3,3,0,0,1,3,3v0a7.25,7.25,0,0,1-7.25,7.25H188.7a7.25,7.25,0,0,1-7.25-7.25v0a3,3,0,0,1,3-3Z" transform="translate(482.54 378.25) rotate(180)"/><polygon class="cls-2" points="688.77 413.95 493.74 413.95 493.74 391.71 663 391.64 688.77 413.95"/><path class="cls-6" d="M214,259.89H542.57a12,12,0,0,1,12,12V372.76a12,12,0,0,1-12,12H214a0,0,0,0,1,0,0V259.89a0,0,0,0,1,0,0Z" transform="translate(768.58 644.65) rotate(-180)"/><path class="cls-2" d="M648.7,259.89a12.93,12.93,0,0,1,12.89,12.89v1.06a12.85,12.85,0,0,1,4.05,9.35v78.27a12.85,12.85,0,0,1-4.05,9.35v1.06a12.93,12.93,0,0,1-12.89,12.89H554.57V259.89H648.7Z"/><rect class="cls-2" x="589.14" y="207.99" width="34.61" height="80.21" rx="5.4" ry="5.4" transform="translate(1212.9 496.19) rotate(-180)"/><rect class="cls-2" x="585.77" y="212.34" width="41.35" height="9.15" rx="4.58" ry="4.58" transform="translate(1212.9 433.83) rotate(180)"/><rect class="cls-6" x="430.5" y="219.01" width="48.65" height="73.77" rx="24.32" ry="24.32" transform="translate(909.65 511.79) rotate(180)"/><rect class="cls-6" x="153.7" y="213.67" width="175.14" height="197.03" rx="4.02" ry="4.02" transform="translate(482.54 624.37) rotate(-180)"/><rect class="cls-6" x="231.15" y="252.98" width="175.14" height="119.54" rx="4.02" ry="4.02" transform="translate(637.45 625.51) rotate(-180)"/><rect class="cls-2" x="181.45" y="234.09" width="119.64" height="176.61" rx="32.23" ry="32.23" transform="translate(482.54 644.8) rotate(-180)"/><path class="cls-3" d="M319.81,416.14H162.73a5.39,5.39,0,0,1-5.39-5.39v-185a5.39,5.39,0,0,1,5.39-5.39H319.81a5.39,5.39,0,0,1,5.39,5.39v185A5.39,5.39,0,0,1,319.81,416.14ZM162.73,223.31a2.46,2.46,0,0,0-2.46,2.46v185a2.46,2.46,0,0,0,2.46,2.46H319.81a2.46,2.46,0,0,0,2.46-2.46v-185a2.46,2.46,0,0,0-2.46-2.46H162.73Z"/><path class="cls-3" d="M124.45,410.7h88.7V304.55a3.27,3.27,0,0,0-3.26-3.26l-109.38-.52A3.27,3.27,0,0,0,97.25,304v33a20.54,20.54,0,0,0,2.63,10.06l16.7,18.69A26.31,26.31,0,0,1,120,378.67v27.54A4.51,4.51,0,0,0,124.45,410.7Z"/><path class="cls-6" d="M202.37,402.5H133.92a7.44,7.44,0,0,1-7.43-7.44V374.84a21,21,0,0,0-2.63-10.17l-14-15.66a18.13,18.13,0,0,1-2.32-8.86V312.67a3.7,3.7,0,0,1,3.69-3.69l91.12,0.43a3.7,3.7,0,0,1,3.69,3.69v85.71A3.7,3.7,0,0,1,202.37,402.5ZM111.54,348l14,15.66a22.94,22.94,0,0,1,2.94,11.22v20.22a5.49,5.49,0,0,0,5.48,5.48h68.46a1.74,1.74,0,0,0,1.74-1.74V313.1a1.74,1.74,0,0,0-1.74-1.74l-91.12-.43a1.74,1.74,0,0,0-1.73,1.74v27.49A16.17,16.17,0,0,0,111.54,348Z"/><path class="cls-5" d="M148.16,206.66H334.39a3,3,0,0,1,3,3v0a7.25,7.25,0,0,1-7.25,7.25H152.4a7.25,7.25,0,0,1-7.25-7.25v0a3,3,0,0,1,3-3Z" transform="translate(482.54 423.57) rotate(-180)"/><path class="cls-3" d="M259.42,301.29H499.93a0,0,0,0,1,0,0V406.68a4,4,0,0,1-4,4H263.44a4,4,0,0,1-4-4V301.29A0,0,0,0,1,259.42,301.29Z" transform="translate(759.35 712) rotate(-180)"/><path class="cls-6" d="M486.79,403H272.56a4.91,4.91,0,0,1-4.9-4.9V313.88a4.91,4.91,0,0,1,4.9-4.9H486.79a4.91,4.91,0,0,1,4.9,4.9v84.24A4.91,4.91,0,0,1,486.79,403ZM272.56,310.93a3,3,0,0,0-2.95,2.95v84.24a3,3,0,0,0,2.95,2.95H486.79a3,3,0,0,0,2.95-2.95V313.88a3,3,0,0,0-2.95-2.95H272.56Z"/><path class="cls-1" d="M123.22,410.7H699.69v44.89H671a3.37,3.37,0,0,1-3.44-3.3h0a10.74,10.74,0,0,0-11-10.5H123.22c-9,0-16.24-7-16.24-15.55h0C107,417.66,114.25,410.7,123.22,410.7Z"/><path class="cls-7" d="M119.4,410.7H697.71a2,2,0,0,1,2,2v0a2,2,0,0,1-2,2H119.4a0,0,0,0,1,0,0v-4A0,0,0,0,1,119.4,410.7Z" transform="translate(819.09 825.38) rotate(-180)"/><circle class="cls-1" cx="587.06" cy="479.61" r="54.33"/><path class="cls-2" d="M587.06,539.3a59.7,59.7,0,1,1,59.7-59.7A59.76,59.76,0,0,1,587.06,539.3Zm0-108.65a49,49,0,1,0,49,49A49,49,0,0,0,587.06,430.65Z"/><path class="cls-7" d="M587.06,438.34a41.27,41.27,0,1,1-41.27,41.27,41.31,41.31,0,0,1,41.27-41.27m0-10.74a52,52,0,1,0,52,52,52,52,0,0,0-52-52h0Z"/><circle class="cls-7" cx="587.06" cy="479.61" r="15.21"/><path class="cls-6" d="M587.06,434.34a45.26,45.26,0,1,1-45.26,45.26,45.32,45.32,0,0,1,45.26-45.26m0-3.91a49.17,49.17,0,1,0,49.17,49.17,49.17,49.17,0,0,0-49.17-49.17h0Z"/><polygon class="cls-6" points="585.59 483.85 585.59 432.84 588.52 432.84 588.52 475.37 614.57 442.18 616.87 443.99 585.59 483.85"/><polygon class="cls-6" points="588.42 526.64 585.49 526.64 585.49 484.1 559.44 517.29 557.14 515.48 588.42 475.63 588.42 526.64"/><polygon class="cls-6" points="591.11 481.15 540.11 481.15 540.11 478.22 582.64 478.22 549.45 452.17 551.26 449.87 591.11 481.15"/><polygon class="cls-6" points="622.75 509.61 582.89 478.32 633.9 478.32 633.9 481.25 591.37 481.25 624.56 507.3 622.75 509.61"/><circle class="cls-8" cx="587.06" cy="479.61" r="11.57"/><circle class="cls-1" cx="321.34" cy="479.61" r="54.33"/><path class="cls-2" d="M321.33,539.3a59.7,59.7,0,1,1,59.7-59.7A59.76,59.76,0,0,1,321.33,539.3Zm0-108.65a49,49,0,1,0,49,49A49,49,0,0,0,321.33,430.65Z"/><path class="cls-7" d="M321.34,438.34a41.27,41.27,0,1,1-41.27,41.27,41.31,41.31,0,0,1,41.27-41.27m0-10.74a52,52,0,1,0,52,52,52,52,0,0,0-52-52h0Z"/><circle class="cls-7" cx="321.34" cy="479.61" r="15.21"/><path class="cls-6" d="M321.34,434.34a45.26,45.26,0,1,1-45.26,45.26,45.32,45.32,0,0,1,45.26-45.26m0-3.91a49.17,49.17,0,1,0,49.17,49.17,49.17,49.17,0,0,0-49.17-49.17h0Z"/><polygon class="cls-6" points="319.87 483.85 319.87 432.84 322.8 432.84 322.8 475.37 348.85 442.18 351.15 443.99 319.87 483.85"/><polygon class="cls-6" points="322.7 526.64 319.77 526.64 319.77 484.1 293.72 517.29 291.42 515.48 322.7 475.63 322.7 526.64"/><polygon class="cls-6" points="325.39 481.15 274.38 481.15 274.38 478.22 316.92 478.22 283.73 452.17 285.54 449.87 325.39 481.15"/><polygon class="cls-6" points="357.03 509.61 317.18 478.32 368.18 478.32 368.18 481.25 325.65 481.25 358.84 507.3 357.03 509.61"/><circle class="cls-8" cx="321.34" cy="479.61" r="11.57"/><circle class="cls-1" cx="184.31" cy="479.61" r="54.33"/><path class="cls-2" d="M184.31,539.3a59.7,59.7,0,1,1,59.7-59.7A59.76,59.76,0,0,1,184.31,539.3Zm0-108.65a49,49,0,1,0,49,49A49,49,0,0,0,184.31,430.65Z"/><path class="cls-7" d="M184.31,438.34A41.27,41.27,0,1,1,143,479.61a41.31,41.31,0,0,1,41.27-41.27m0-10.74a52,52,0,1,0,52,52,52,52,0,0,0-52-52h0Z"/><circle class="cls-7" cx="184.31" cy="479.61" r="15.21"/><path class="cls-6" d="M184.31,434.34A45.26,45.26,0,1,1,139,479.61a45.32,45.32,0,0,1,45.26-45.26m0-3.91a49.17,49.17,0,1,0,49.17,49.17,49.17,49.17,0,0,0-49.17-49.17h0Z"/><polygon class="cls-6" points="182.84 483.85 182.84 432.84 185.77 432.84 185.77 475.37 211.82 442.18 214.12 443.99 182.84 483.85"/><polygon class="cls-6" points="185.67 526.64 182.74 526.64 182.74 484.1 156.69 517.29 154.39 515.48 185.67 475.63 185.67 526.64"/><polygon class="cls-6" points="188.36 481.15 137.35 481.15 137.35 478.22 179.89 478.22 146.7 452.17 148.51 449.87 188.36 481.15"/><polygon class="cls-6" points="220 509.61 180.15 478.32 231.15 478.32 231.15 481.25 188.62 481.25 221.81 507.3 220 509.61"/><circle class="cls-8" cx="184.31" cy="479.61" r="11.57"/><path class="cls-5" d="M148.52,441.66A11.36,11.36,0,0,1,158.68,448H275.39a11.35,11.35,0,0,1,20.32,0H541.32a11.37,11.37,0,1,1,0,10.16H295.71a11.35,11.35,0,0,1-20.32,0H158.68A11.36,11.36,0,1,1,148.52,441.66Z"/><circle class="cls-6" cx="551.48" cy="453.03" r="9.13"/><circle class="cls-6" cx="285.55" cy="453.03" r="9.13"/><circle class="cls-6" cx="148.52" cy="453.03" r="9.13"/><rect class="cls-3" x="323.74" y="290.36" width="300.02" height="2.42" rx="1.21" ry="1.21" transform="translate(947.49 583.14) rotate(180)"/><rect class="cls-2" x="722.18" y="419.79" width="3.45" height="22.31" rx="1.72" ry="1.72" transform="translate(1447.81 861.89) rotate(180)"/><path class="cls-2" d="M724.63,420.43c1.95,1.22,3.35,4.5,3.35,8.33v4.37c0,3.84-1.41,7.11-3.35,8.33v-21Z"/><path class="cls-7" d="M554.57,290.36h68a1.21,1.21,0,1,1,0,2.42h-68v-2.42Z"/></svg>